<svg xmlns="http://www.w3.org/2000/svg" viewBox="0 0 760 380" font-family="-apple-system,BlinkMacSystemFont,Segoe UI,sans-serif"><rect width="760" height="380" fill="#ffffff" stroke="#d0d7de" rx="8"/><text x="64" y="30" font-size="16" font-weight="700" fill="#1f2328">Unique-count accuracy: HyperLogLog estimate vs exact truth</text><text x="64" y="46" font-size="12" fill="#57606a">p=14, ~16 KB per sketch — error stays near theory across 5 orders of magnitude</text><line x1="64" y1="320" x2="736" y2="320" stroke="#eaeef2"/><text x="56" y="324" font-size="11" fill="#57606a" text-anchor="end">0.0%</text><line x1="64" y1="254" x2="736" y2="254" stroke="#eaeef2"/><text x="56" y="258" font-size="11" fill="#57606a" text-anchor="end">0.4%</text><line x1="64" y1="188" x2="736" y2="188" stroke="#eaeef2"/><text x="56" y="192" font-size="11" fill="#57606a" text-anchor="end">0.8%</text><line x1="64" y1="122" x2="736" y2="122" stroke="#eaeef2"/><text x="56" y="126" font-size="11" fill="#57606a" text-anchor="end">1.1%</text><line x1="64" y1="56" x2="736" y2="56" stroke="#eaeef2"/><text x="56" y="60" font-size="11" fill="#57606a" text-anchor="end">1.5%</text><line x1="64" y1="177" x2="736" y2="177" stroke="#0969da" stroke-dasharray="5 4"/><text x="734" y="172" font-size="11" fill="#0969da" text-anchor="end">theoretical 0.81%</text><rect x="94" y="318" width="73" height="2" rx="3" fill="#2da44e"/><text x="130" y="312" font-size="11" font-weight="600" fill="#1f2328" text-anchor="middle">0.00%</text><text x="130" y="340" font-size="12" fill="#57606a" text-anchor="middle">100</text><rect x="228" y="318" width="73" height="2" rx="3" fill="#2da44e"/><text x="264" y="312" font-size="11" font-weight="600" fill="#1f2328" text-anchor="middle">0.00%</text><text x="264" y="340" font-size="12" fill="#57606a" text-anchor="middle">1K</text><rect x="362" y="282" width="73" height="38" rx="3" fill="#2da44e"/><text x="398" y="276" font-size="11" font-weight="600" fill="#1f2328" text-anchor="middle">0.22%</text><text x="398" y="340" font-size="12" fill="#57606a" text-anchor="middle">10K</text><rect x="496" y="118" width="73" height="202" rx="3" fill="#2da44e"/><text x="532" y="112" font-size="11" font-weight="600" fill="#1f2328" text-anchor="middle">1.15%</text><text x="532" y="340" font-size="12" fill="#57606a" text-anchor="middle">100K</text><rect x="630" y="296" width="73" height="24" rx="3" fill="#2da44e"/><text x="666" y="290" font-size="11" font-weight="600" fill="#1f2328" text-anchor="middle">0.14%</text><text x="666" y="340" font-size="12" fill="#57606a" text-anchor="middle">1M</text><text x="400" y="366" font-size="12" fill="#57606a" text-anchor="middle">distinct users added</text></svg>